HIERARCHY
ROOT Hips
{
  OFFSET -213.699 104.721 0.752556
  CHANNELS 6 Xposition Yposition Zposition Zrotation Xrotation Yrotation
  JOINT RightUpLeg
  {
    OFFSET -8.9458 -8.66707 0.101652
    CHANNELS 3 Zrotation Xrotation Yrotation
    JOINT RightLeg
    {
      OFFSET 0 -44.4227 1.3727
      CHANNELS 3 Zrotation Xrotation Yrotation
      JOINT RightFoot
      {
        OFFSET 0.253549 -42.0924 -1.46059
        CHANNELS 3 Zrotation Xrotation Yrotation
        JOINT RightToes
        {
          OFFSET 0.04 -4.41509 8.4991
          CHANNELS 3 Zrotation Xrotation Yrotation
          End Site
          {
            OFFSET -0.08 -0.137448 9.77979
          }
        }
      }
    }
  }
  JOINT Spine
  {
    OFFSET 0 11.8905 0
    CHANNELS 3 Zrotation Xrotation Yrotation
    JOINT Spine1
    {
      OFFSET 0 25.6574 0.127663
      CHANNELS 3 Zrotation Xrotation Yrotation
      JOINT HEad
      {
        OFFSET 0 8.73416 0.011341
        CHANNELS 3 Zrotation Xrotation Yrotation
        End Site
        {
          OFFSET -0.29 12.7742 2.51395
        }
      }
      JOINT LeftShoulder1
      {
        OFFSET 8.99 -0.362252 -0.22
        CHANNELS 3 Zrotation Xrotation Yrotation
        JOINT LeftArm
        {
          OFFSET 10.2827 -0.00337999 0.322123
          CHANNELS 3 Zrotation Xrotation Yrotation
          JOINT LeftForeArm
          {
            OFFSET 26.2597 0.099144 -1.42434
            CHANNELS 3 Zrotation Xrotation Yrotation
            JOINT LeftHand
            {
              OFFSET 22.0902 0.085362 1.02216
              CHANNELS 3 Zrotation Xrotation Yrotation
              End Site
              {
                OFFSET 13.419 -0.6 1.50291
              }
            }
          }
        }
      }
      JOINT RightShoulder
      {
        OFFSET -8.99 -0.362252 -0.22
        CHANNELS 3 Zrotation Xrotation Yrotation
        JOINT RightArm
        {
          OFFSET -10.2827 -0.00338 0.322123
          CHANNELS 3 Zrotation Xrotation Yrotation
          JOINT RightForeArm
          {
            OFFSET -26.364 0.099144 -1.42434
            CHANNELS 3 Zrotation Xrotation Yrotation
            JOINT RightHand
            {
              OFFSET -22.0324 0.085362 1.02216
              CHANNELS 3 Zrotation Xrotation Yrotation
              End Site
              {
                OFFSET -13.3284 -0.6 1.50291
              }
            }
          }
        }
      }
    }
  }
  JOINT LeftUpLeg
  {
    OFFSET 8.9458 -8.66707 0.101652
    CHANNELS 3 Zrotation Xrotation Yrotation
    JOINT LeftLeg
    {
      OFFSET 0 -44.4227 1.3727
      CHANNELS 3 Zrotation Xrotation Yrotation
      JOINT LeftFoot
      {
        OFFSET -0.253549 -42.0924 -1.46059
        CHANNELS 3 Zrotation Xrotation Yrotation
        JOINT LeftToes
        {
          OFFSET -0.04 -4.41509 8.4991
          CHANNELS 3 Zrotation Xrotation Yrotation
          End Site
          {
            OFFSET 0.08 -0.047448 9.77979
          }
        }
      }
    }
  }
}
MOTION
Frames:	14
Frame Time:	0.0333333
-205.516 103.956 -89.2913 0.38694 0.182452 86.2882 -0.935029 1.84762 -2.15509 -1.14529 8.01014 -9.94661 -0.66077 -4.5478 -0.12495 0.0462048 0.000530889 0.662642 -4.34797 -4.91825 -1.42088 1.86818 11.5361 -1.73032 1.64093 2.57966 -3.8193 -32.4832 -4.13217 14.2024 -80.2993 -45.1598 -38.0425 -172.577 64.6641 176.146 10.7617 8.58312 -9.90972 31.1237 -1.04321 -6.89275 56.0188 -18.2647 22.3072 17.7749 70.5434 -3.213 -0.938612 9.89062 0.970618 -1.89487 -0.523224 1.25884 1.45433 9.43091 20.0788 3.84403 -6.18986 -0.0306128 -1.35049e-009 8.75224e-006 -1.46981e-008 
-205.535 103.956 -89.2913 0.363523 0.194007 86.302 -0.940141 1.78216 -2.15379 -1.15004 8.04871 -9.94064 -0.777577 -4.51512 -0.124944 0.0462048 0.000530889 0.662642 -4.38586 -4.84507 -1.39543 1.89141 11.477 -1.70913 1.68687 2.61679 -3.81737 -32.5308 -4.15332 14.2437 -80.3167 -45.0925 -38.1318 -172.509 64.9229 176.056 10.4602 8.67916 -9.24706 31.2503 -1.09118 -7.00977 55.8151 -18.029 22.3197 17.5384 70.4848 -2.8806 -0.91087 9.88853 0.892008 -1.91106 -0.555681 1.23612 1.46711 9.41593 20.072 3.77687 -6.2003 -0.0306134 -1.35049e-009 8.75224e-006 -1.46981e-008 
-205.565 103.957 -89.2913 0.316242 0.178589 86.2881 -0.94448 1.69839 -2.1659 -1.11544 8.0868 -9.90899 -0.703646 -4.54958 -0.12495 0.0462048 0.000530889 0.662642 -4.35226 -4.66352 -1.3413 1.86196 11.2418 -1.64743 1.82076 2.60826 -3.78774 -32.5728 -4.1521 14.2289 -80.365 -45.2255 -38.2255 -172.446 65.1221 176.126 10.1389 8.77143 -8.5976 31.402 -1.1532 -7.16123 55.6281 -17.8759 22.2716 17.4804 70.3914 -2.76525 -1.091 9.8797 0.95035 -1.8986 -0.616841 1.22806 1.46735 9.38833 20.1038 3.86278 -6.17605 -0.030612 -1.35049e-009 8.75224e-006 -1.46981e-008 
-205.571 103.962 -89.2908 0.25478 0.140515 86.2605 -0.919863 1.66748 -2.15969 -1.07848 8.00527 -9.89245 -0.681642 -4.50869 -0.124943 0.0462048 0.000530889 0.662642 -4.26161 -4.66643 -1.27301 1.77383 11.1616 -1.55673 1.95246 2.51675 -3.62362 -32.5118 -4.12297 14.1708 -80.295 -45.1197 -38.1054 -172.276 65.7555 175.805 9.46665 8.92901 -7.58732 31.4711 -1.21743 -7.32543 55.4918 -17.6584 22.2197 17.3612 70.233 -2.57376 -1.20975 9.87142 1.06428 -1.84813 -0.664774 1.24893 1.45836 9.34863 20.1067 3.88652 -6.16176 -0.0306112 -1.35049e-009 8.75224e-006 -1.46981e-008 
-205.569 103.973 -89.2901 0.254223 0.147954 86.2942 -0.933714 1.75176 -2.17002 -1.05945 7.82008 -9.95679 -0.735197 -4.38727 -0.124923 0.0462048 0.000530889 0.662642 -4.28435 -4.56748 -1.25804 1.72383 11.0545 -1.53293 1.98681 2.57181 -3.68876 -32.4832 -4.10381 14.1294 -80.2515 -45.1743 -38.085 -172.196 66.0262 175.723 9.08922 8.99227 -7.29527 31.6454 -1.27217 -7.45292 55.3007 -17.5484 22.2273 17.3377 70.0732 -2.50816 -1.12743 9.8682 0.991646 -1.85716 -0.710619 1.25241 1.46535 9.44784 20.0684 3.83093 -6.14331 -0.0306101 -1.35049e-009 8.75224e-006 -1.46981e-008 
-205.568 103.971 -89.292 0.267115 0.132545 86.2668 -0.896644 1.73877 -2.12303 -1.09924 7.86924 -9.94882 -0.750435 -4.37731 -0.124921 0.0462048 0.000530889 0.662642 -4.23944 -4.38725 -1.20682 1.68619 10.8776 -1.47792 2.01762 2.65623 -3.7278 -32.4909 -4.09922 14.1154 -80.2695 -45.1948 -38.1295 -172.231 65.9036 175.801 9.23716 8.97269 -7.33819 31.7556 -1.33738 -7.61377 55.1872 -17.5276 22.264 17.4241 70.2136 -2.58043 -1.10339 9.86608 0.998951 -1.84691 -0.69466 1.26613 1.46485 9.4455 20.0807 3.88379 -6.16363 -0.0306113 -1.35049e-009 8.75224e-006 -1.46981e-008 
-205.565 103.969 -89.2949 0.272947 0.122752 86.2876 -0.871562 1.71651 -2.10004 -1.13323 7.94585 -9.98991 -0.68343 -4.40894 -0.124926 0.0462048 0.000530889 0.662642 -4.24538 -4.31896 -1.19672 1.7081 10.7946 -1.46961 1.99582 2.76108 -3.77902 -32.5206 -4.09014 14.0839 -80.1567 -45.2397 -38.0702 -172.24 65.8748 175.789 9.31604 8.96017 -7.39043 31.9102 -1.38806 -7.73037 54.9513 -17.3167 22.2733 17.3437 69.9735 -2.42928 -1.11799 9.86523 0.967034 -1.82474 -0.621096 1.27281 1.44796 9.30828 20.0375 3.89203 -6.14774 -0.0306104 -1.35049e-009 8.75224e-006 -1.46981e-008 
-205.562 103.968 -89.2981 0.269797 0.113014 86.3216 -0.865241 1.81548 -2.09399 -1.10881 7.75644 -10.0342 -0.685699 -4.38312 -0.124922 0.0462048 0.000530889 0.662642 -4.28812 -4.18835 -1.20767 1.67659 10.5731 -1.47872 2.06567 2.94909 -3.90273 -32.5495 -4.092 14.0806 -79.9615 -45.2917 -37.9462 -172.219 65.9529 175.7 9.21928 8.97636 -7.31492 32.1451 -1.44785 -7.86074 54.746 -17.3528 22.2913 17.6111 70.1008 -2.70026 -1.14377 9.86515 1.014 -1.80652 -0.714461 1.29646 1.45187 9.50335 19.9968 3.81819 -6.17246 -0.0306118 -1.35049e-009 8.75224e-006 -1.46981e-008 
-205.573 103.966 -89.3007 0.237603 0.0952448 86.3279 -0.862785 1.73801 -2.11521 -1.0787 7.81745 -10.0402 -0.72273 -4.34162 -0.124915 0.0462048 0.000530889 0.662642 -4.29825 -3.99518 -1.21392 1.73092 10.3283 -1.49677 2.22244 3.1618 -4.05032 -32.6739 -4.17616 14.2627 -79.8893 -45.2999 -38.0442 -172.284 65.7326 175.782 9.20767 8.97165 -7.39856 32.245 -1.49662 -7.97666 54.6015 -17.2509 22.3246 17.8163 69.9207 -2.88653 -1.15032 9.86605 1.00646 -1.79541 -0.718398 1.28064 1.4627 9.42301 20.0008 3.79837 -6.20039 -0.0306134 -1.35049e-009 8.75224e-006 -1.46981e-008 
-205.566 103.964 -89.3018 0.229498 0.092845 86.3585 -0.858186 1.71625 -2.12058 -1.07663 7.85141 -10.0702 -0.737962 -4.32933 -0.124913 0.0462048 0.000530889 0.662642 -4.32519 -4.05035 -1.22778 1.79307 10.3725 -1.52268 2.12787 3.23051 -4.11346 -32.7006 -4.17285 14.2468 -79.7958 -45.3371 -37.9602 -172.266 65.7982 175.723 9.02813 8.98527 -7.48906 32.2459 -1.49648 -7.97608 54.5902 -17.2965 22.2542 17.5392 69.9001 -2.60158 -1.17135 9.86754 1.01431 -1.78753 -0.728256 1.27569 1.45669 9.41673 19.9361 3.85103 -6.16582 -0.0306114 -1.35049e-009 8.75224e-006 -1.46981e-008 
-205.567 103.963 -89.3009 0.261357 0.0922351 86.3211 -0.854514 1.74928 -2.12045 -1.08471 7.84431 -10.02 -0.828856 -4.33657 -0.124914 0.0462048 0.000530889 0.662642 -4.34482 -3.94148 -1.21594 1.81114 10.2775 -1.5175 2.09949 3.35458 -4.12204 -32.7335 -4.19213 14.287 -79.7941 -45.3793 -37.9999 -172.275 65.7637 175.768 8.88226 9.00004 -7.51115 32.3046 -1.52859 -8.05296 54.4874 -17.1979 22.2155 17.2115 69.7772 -2.22592 -1.14047 9.86954 1.00603 -1.78326 -0.679348 1.30555 1.43923 9.38073 19.9586 3.89271 -6.15363 -0.0306107 -1.35049e-009 8.75224e-006 -1.46981e-008 
-205.572 103.964 -89.2996 0.307443 0.0951764 86.3362 -0.857175 1.78948 -2.11732 -1.10214 7.86357 -10.0353 -0.711643 -4.36353 -0.124919 0.0462048 0.000530889 0.662642 -4.47255 -3.91767 -1.29807 1.895 10.3341 -1.61855 2.10255 3.55292 -4.10345 -32.771 -4.23638 14.3898 -79.7482 -45.4121 -38.0829 -172.347 65.5037 175.904 9.49392 8.94388 -7.34045 32.3754 -1.47282 -7.89955 54.4974 -17.2992 22.1927 17.2139 69.7624 -2.25198 -1.1109 9.87209 0.909996 -1.79366 -0.610823 1.30925 1.43638 9.3359 19.9721 3.93864 -6.17751 -0.0306121 -1.35049e-009 8.75224e-006 -1.46981e-008 
-205.584 103.966 -89.2998 0.381799 0.117936 86.3247 -0.87326 1.86889 -2.12623 -1.12063 7.85104 -10.0211 -0.783751 -4.36072 -0.124918 0.0462048 0.000530889 0.662642 -4.56201 -3.791 -1.28443 1.96445 10.2835 -1.62569 2.12169 3.79037 -4.12293 -32.787 -4.23946 14.3932 -79.8477 -45.551 -38.1724 -172.641 64.3178 176.495 10.9146 8.78226 -7.39036 32.3767 -1.46267 -7.87303 54.4856 -17.4226 22.1688 17.3255 69.8195 -2.39871 -1.18996 9.87417 1.01741 -1.81061 -0.579316 1.32265 1.41944 9.42603 19.948 3.90807 -6.14517 -0.0306102 -1.35049e-009 8.75224e-006 -1.46981e-008 
-205.588 103.971 -89.3055 0.406179 0.103423 86.3977 -0.865328 1.91399 -2.13716 -1.10589 7.83512 -10.0904 -0.8097 -4.36626 -0.124919 0.0462048 0.000530889 0.662642 -4.58444 -3.75434 -1.34821 1.99546 10.266 -1.69905 1.98263 4.22477 -4.04731 -32.8189 -4.26169 14.4411 -79.8561 -45.5597 -38.2409 -172.586 64.5433 176.423 10.456 8.8165 -7.60627 32.3481 -1.44939 -7.84175 54.6585 -17.7239 22.1987 17.7088 69.9897 -2.88914 -1.33411 9.87613 1.13443 -1.78595 -0.545221 1.35191 1.40037 9.40737 19.8747 3.9636 -6.18335 -0.0306125 -1.35049e-009 8.75224e-006 -1.46981e-008 
